<svg xmlns="http://www.w3.org/2000/svg" xmlns:xlink="http://www.w3.org/1999/xlink"><defs><style>
    .sprite-symbol-usage {display: none;}
    .sprite-symbol-usage:target {display: inline;}
  </style><symbol viewBox="0 0 100 100" id="energy.sprite"><defs></defs><g stroke-width="1.135"><path d="M-220.476 23.937h106.069v106.055h-106.07z" fill="#131111" stroke="#762c83" stroke-width="2.263" paint-order="fill markers stroke" transform="matrix(.88112 0 0 .88112 197.543 -17.815)" /><path d="M-218.412 26.002h101.94v101.925h-101.94z" fill="url(#energy.sprite_b)" stroke="#874997" stroke-width="2.942" paint-order="fill markers stroke" transform="matrix(.88112 0 0 .88112 197.543 -17.815)" /><path d="M-189.81 109.997l19.486-28.235-10.14-16.133 35.393-22.386-19.884 28.234 10.34 16.739z" fill="#fff" fill-rule="evenodd" stroke="#874997" stroke-width="2.184" stroke-linecap="round" stroke-linejoin="round" transform="matrix(.88112 0 0 .88112 197.543 -17.815)" /><path d="M-189.81 109.997l19.486-28.235-10.14-16.133 35.393-22.386-19.884 28.234 10.34 16.739z" fill="#fff" fill-rule="evenodd" stroke="#4d594d" stroke-width=".826" stroke-linecap="round" stroke-linejoin="round" transform="matrix(.88112 0 0 .88112 197.543 -17.815)" /><path d="M1.602 2.667V47.29c31.536 6.158 63.917 5.902 97.04 0V2.667z" opacity=".211" fill="#d173c1" fill-rule="evenodd" /><path d="M-222.499 21.915h110.114v110.098H-222.5z" fill="none" stroke="#121211" stroke-width="3.395" paint-order="fill markers stroke" transform="matrix(.88112 0 0 .88112 197.543 -17.815)" /></g></symbol><radialGradient xlink:href="#energy.sprite_a" id="energy.sprite_b" cx="41.639" cy="251.564" fx="41.639" fy="251.564" r="26.068" gradientTransform="matrix(2.00525 0 0 2.00567 -250.938 -427.589)" gradientUnits="userSpaceOnUse"></radialGradient><linearGradient id="energy.sprite_a"><stop offset="0" stop-color="#931880" /><stop offset="1" stop-color="#801893" /></linearGradient><symbol viewBox="0 0 100 100" id="gold.sprite"><defs></defs><g stroke-width="1.135"><path d="M98.5 16.014L83.986 1.5h-68.51L1.5 15.475v68.298L16.227 98.5h67.008L98.5 83.235z" fill="#fdec00" paint-order="fill markers stroke" /><path d="M-222.494 110.727v4.568l16.714 16.713h76.05l17.324-17.324v-3.957z" fill="url(#gold.sprite_e)" paint-order="fill markers stroke" transform="matrix(.88112 0 0 .88112 197.543 -17.815)" /><path d="M-204.318 27.514l-12.724 12.724V53.04h5.006a7.835 7.835 0 017.853 7.853v32.535a7.836 7.836 0 01-7.853 7.853h-5.006v13.245l12.173 12.173h13.351v-5.005a7.836 7.836 0 017.854-7.853h32.535a7.835 7.835 0 017.852 7.853v5.005h12.477l12.942-12.942v-12.582h-5.005a7.836 7.836 0 01-7.853-7.854V60.786a7.835 7.835 0 017.853-7.853h5.005V41.007l-13.493-13.493h-12.031v5.006a7.835 7.835 0 01-7.853 7.852h-32.534a7.836 7.836 0 01-7.854-7.852v-5.006z" fill="url(#gold.sprite_f)" stroke="#fff" stroke-width="2.724" paint-order="fill markers stroke" transform="matrix(.88112 0 0 .88112 197.543 -17.815)" /><path d="M13.995 8.33l-7.146 7.145h2.99l7.143-7.146zm13.649 0v2.386c0 1.786.596 3.43 1.589 4.76h2.949a5.826 5.826 0 01-2.425-4.76V8.329zm42.503 0v2.386c0 1.975-.953 3.7-2.425 4.76h2.951a7.923 7.923 0 001.59-4.76V8.329zm12.19 0l7.145 7.145h2.992L85.327 8.33zM5.246 20.685v9.168h5.466a5.825 5.825 0 015.862 5.86v28.668a5.825 5.825 0 01-5.862 5.861h5.395a7.95 7.95 0 002.583-5.861V35.715c0-4.401-3.577-7.979-7.978-7.979H7.36v-7.05zm87.392 0v6.957h-3.355c-4.401 0-7.975 3.578-7.975 7.979v28.667a7.948 7.948 0 002.685 5.954h10.759v-.093h-5.47a5.824 5.824 0 01-5.86-5.86V35.621a5.825 5.825 0 015.86-5.862h5.47v-9.074zM5.247 72.658v10.75l11.345 11.345h13.257v-5.466a5.825 5.825 0 015.862-5.861H64.38a5.824 5.824 0 015.86 5.86v5.467H82.73L94.753 82.73V72.658h-2.114v9.198L81.853 92.64h-9.497v-3.353c0-4.401-3.576-7.979-7.977-7.979H35.71c-4.4 0-7.974 3.578-7.974 7.979v3.353h-10.27L7.36 82.534v-9.876z" style="line-height:normal;font-variant-ligatures:normal;font-variant-position:normal;font-variant-caps:normal;font-variant-numeric:normal;font-variant-alternates:normal;font-feature-settings:normal;text-indent:0;text-align:start;text-decoration-line:none;text-decoration-style:solid;text-decoration-color:#000;text-transform:none;text-orientation:mixed;white-space:normal;shape-padding:0;isolation:auto;mix-blend-mode:normal;solid-color:#000;solid-opacity:1" color="#000" font-weight="400" font-family="sans-serif" overflow="visible" fill="#fbeb02" paint-order="fill markers stroke" /><path d="M-218.243 51.828v2.552h6.207a6.61 6.61 0 016.653 6.652v21.174h2.398V61.032c0-4.995-4.056-9.055-9.05-9.055h-3.805v-.149zm99.183 0v.044h-3.804c-4.995 0-9.055 4.06-9.055 9.055v21.279h2.403v-21.28a6.614 6.614 0 016.652-6.655h6.207v-2.443zm-99.183 51.132v12.201l12.876 12.875h15.05v-6.204a6.611 6.611 0 016.653-6.651h32.534a6.61 6.61 0 016.653 6.651v6.204h14.172l13.648-13.645v-11.43h-2.403v10.438l-12.238 12.239h-10.78v-3.806c0-4.994-4.057-9.054-9.052-9.054h-32.534c-4.995 0-9.055 4.06-9.055 9.054v3.806h-11.653l-11.468-11.47V102.96z" style="line-height:normal;font-variant-ligatures:normal;font-variant-position:normal;font-variant-caps:normal;font-variant-numeric:normal;font-variant-alternates:normal;font-feature-settings:normal;text-indent:0;text-align:start;text-decoration-line:none;text-decoration-style:solid;text-decoration-color:#000;text-transform:none;text-orientation:mixed;white-space:normal;shape-padding:0;isolation:auto;mix-blend-mode:normal;solid-color:#000;solid-opacity:1" color="#000" font-weight="400" font-family="sans-serif" overflow="visible" fill="#87150a" stroke="#87150a" stroke-width=".454" paint-order="fill markers stroke" transform="matrix(.88112 0 0 .88112 197.543 -17.815)" /><path d="M-206.634 21.92l-4.385 4.386h86.526l-4.385-4.385z" fill="url(#gold.sprite_g)" paint-order="fill markers stroke" transform="matrix(.88112 0 0 .88112 197.543 -17.815)" /><path d="M-112.406 38.392l-16.472-16.471h-77.755l-15.86 15.86v77.514l16.713 16.713h76.05l17.324-17.324z" fill="none" stroke="#000" stroke-width="3.405" paint-order="fill markers stroke" transform="matrix(.88112 0 0 .88112 197.543 -17.815)" /><path d="M-144.724 33.196c0 3.3-2.83 5.957-6.345 5.957h-32.76c-3.516 0-6.347-2.657-6.347-5.957v-6.384h45.452z" fill="url(#gold.sprite_h)" paint-order="fill markers stroke" transform="matrix(.88112 0 0 .88112 197.543 -17.815)" /><path d="M-144.724 121.09c0-3.3-2.83-5.956-6.345-5.956h-32.76c-3.516 0-6.347 2.656-6.347 5.957v6.384h45.452z" fill="url(#gold.sprite_i)" paint-order="fill markers stroke" transform="matrix(.88112 0 0 .88112 197.543 -17.815)" /><path d="M-211.579 54.38c3.3 0 5.958 2.83 5.958 6.346v32.76c0 3.515-2.657 6.346-5.958 6.346h-6.384V54.38z" fill="url(#gold.sprite_j)" paint-order="fill markers stroke" transform="matrix(.88112 0 0 .88112 197.543 -17.815)" /><path d="M-123.04 54.38c-3.3 0-5.958 2.83-5.958 6.346v32.76c0 3.515 2.657 6.346 5.958 6.346h6.383V54.38z" fill="url(#gold.sprite_k)" paint-order="fill markers stroke" transform="matrix(.88112 0 0 .88112 197.543 -17.815)" /><path d="M-164.904 48.152c-3.06-.016-6.12.373-8.798 1.28-9.026 3.974-12.607 10.3-14.619 18.991-.046.199-.08.438-.118.665h-2.16v4.083h1.802c-.002.157-.002.664.004 1.424-.006.76-.006 1.268-.004 1.425h-1.802v4.082h2.16c.038.228.072.467.118.665-.613 7.484 4.859 16.99 13.195 20.417 9.08 3.732 23.469.875 28.479-7.502l-8.45-12.06s-4.644 6.125-7.118 7.027c-6.785 1.277-9.86-3.226-11.412-8.547h8.09V76.02h-8.167a28.721 28.721 0 01-.05-1.4l-.002-.025.001-.024c.004-.455.023-.923.05-1.4h8.167v-4.083h-7.076c1.552-5.32 5.513-7.734 12.297-6.458 2.475.902 6.17 4.274 6.17 4.274l5.411-13.96c-2.693-2.762-9.433-4.758-16.168-4.792z" fill="url(#gold.sprite_l)" fill-rule="evenodd" stroke="#e16503" stroke-width="1.963" transform="matrix(.88112 0 0 .88112 197.543 -17.815)" /></g></symbol><radialGradient xlink:href="#gold.sprite_b" id="gold.sprite_f" cx="18.736" cy="48.591" fx="18.736" fy="48.591" r="24.796" gradientTransform="matrix(2 0 0 2 -204.922 -20.077)" gradientUnits="userSpaceOnUse"></radialGradient><radialGradient xlink:href="#gold.sprite_b" id="gold.sprite_h" cx="18.58" cy="35.673" fx="18.58" fy="35.673" r="11.153" gradientTransform="matrix(2.03772 0 0 1.32305 -205.596 -9.117)" gradientUnits="userSpaceOnUse"></radialGradient><radialGradient xlink:href="#gold.sprite_b" id="gold.sprite_i" cx="18.58" cy="35.673" fx="18.58" fy="35.673" r="11.153" gradientTransform="matrix(2.03772 0 0 -1.32305 -205.596 163.403)" gradientUnits="userSpaceOnUse"></radialGradient><radialGradient xlink:href="#gold.sprite_b" id="gold.sprite_j" cx="18.58" cy="35.673" fx="18.58" fy="35.673" r="11.153" gradientTransform="matrix(0 -2.03772 1.32305 0 -253.891 115.253)" gradientUnits="userSpaceOnUse"></radialGradient><radialGradient xlink:href="#gold.sprite_b" id="gold.sprite_k" cx="18.58" cy="35.673" fx="18.58" fy="35.673" r="11.153" gradientTransform="matrix(0 -2.03772 -1.32305 0 -80.728 115.253)" gradientUnits="userSpaceOnUse"></radialGradient><radialGradient xlink:href="#gold.sprite_d" id="gold.sprite_l" gradientUnits="userSpaceOnUse" gradientTransform="matrix(1.45795 -.52246 .68448 1.91008 -226.906 -6.79)" cx="18.375" cy="50.517" fx="18.375" fy="50.517" r="11.462"></radialGradient><linearGradient xlink:href="#gold.sprite_a" id="gold.sprite_e" x1="68.3" y1="260.143" x2="68.3" y2="234.702" gradientUnits="userSpaceOnUse" gradientTransform="matrix(.52917 0 0 .52917 -204.922 -20.218)"></linearGradient><linearGradient id="gold.sprite_a"><stop offset="0" stop-color="#8a130d" /><stop offset="1" stop-color="#8a130d" stop-opacity="0" /></linearGradient><linearGradient id="gold.sprite_b"><stop offset="0" stop-color="#fee800" /><stop offset="1" stop-color="#fecf00" /></linearGradient><linearGradient xlink:href="#gold.sprite_c" id="gold.sprite_g" x1="68.512" y1="77.946" x2="69.042" y2="169.64" gradientUnits="userSpaceOnUse" gradientTransform="matrix(.52917 0 0 .52917 -204.922 -20.218)"></linearGradient><linearGradient id="gold.sprite_c"><stop offset="0" stop-color="#fff" /><stop offset="1" stop-color="#fff" stop-opacity="0" /></linearGradient><linearGradient id="gold.sprite_d"><stop offset="0" stop-color="#ffef00" /><stop offset="1" stop-color="#f8ae01" /></linearGradient><symbol viewBox="0 0 100 100" id="heat.sprite"><g stroke-width="1.135"><path d="M-220.476 23.937h106.069v106.055h-106.07z" fill="#e74517" stroke="#e42314" stroke-width="2.263" paint-order="fill markers stroke" transform="matrix(.88112 0 0 .88112 197.543 -17.815)" /><path d="M-218.412 26.002h101.94v101.925h-101.94z" fill="#e74517" stroke="#ec5c2d" stroke-width="2.942" paint-order="fill markers stroke" transform="matrix(.88112 0 0 .88112 197.543 -17.815)" /><path d="M1.601 2.667V47.29c31.537 6.158 63.917 5.902 97.041 0V2.667z" opacity=".211" fill="#ffcba7" fill-rule="evenodd" /><g fill="#fce72c" fill-rule="evenodd" stroke="#ec5c2d" stroke-width="1.569" stroke-linejoin="round"><path d="M233.474 269.124l-.779-18.066-5.826-3.737 5.241-22.074.512 19.164 5.747 3.64zM246.914 269.124l-.78-18.066-5.826-3.737 5.241-22.074.512 19.164 5.748 3.64zM260.353 269.124l-.78-18.066-5.825-3.737 5.24-22.074.512 19.164 5.748 3.64z" transform="matrix(1.76686 0 0 1.792 -384.743 -394.907)" /></g><g fill="#fce72c" fill-rule="evenodd" stroke="#b4150f" stroke-width=".521"><path d="M233.474 269.124l-.779-18.066-5.826-3.737 5.241-22.074.512 19.164 5.747 3.64zM246.914 269.124l-.78-18.066-5.826-3.737 5.241-22.074.512 19.164 5.748 3.64zM260.353 269.124l-.78-18.066-5.825-3.737 5.24-22.074.512 19.164 5.748 3.64z" transform="matrix(1.76686 0 0 1.792 -384.743 -394.907)" /></g><path d="M-222.499 21.915h110.114v110.098H-222.5z" fill="none" stroke="#121211" stroke-width="3.395" paint-order="fill markers stroke" transform="matrix(.88112 0 0 .88112 197.543 -17.815)" /></g></symbol><symbol viewBox="0 0 100 100" id="plant.sprite"><defs></defs><g stroke-width="1.135"><path d="M-220.476 23.937h106.069v106.055h-106.07z" fill="#131111" stroke="#5eb134" stroke-width="2.263" paint-order="fill markers stroke" transform="matrix(.88112 0 0 .88112 197.543 -17.815)" /><path d="M-218.412 26.002h101.94v101.925h-101.94z" fill="url(#plant.sprite_b)" stroke="#99c33b" stroke-width="2.942" paint-order="fill markers stroke" transform="matrix(.88112 0 0 .88112 197.543 -17.815)" /><path d="M-204.267 93.502s5.63 2.169 8.351 1.411c2.676-.745 6.363-5.445 6.363-5.445v-2.017c-1.972-6.623-2.394-10.431-.397-16.133 1.996-5.703 6.843-12.654 12.924-15.328 15.288-6.72 30.344-4.415 45.933.202 0 0-4.456 5.28-6.164 8.269-2.964 5.185-4.847 10.94-6.96 16.537-2.556 8.793-3.396 12.751-11.93 16.739-8.216 3.27-17.784 3.083-25.452-.605-1.656-.797-3.58-4.235-3.58-4.235s-4.807 5.773-7.953 7.663c-2.904 1.72-6.415 2.335-8.749-.202-1.6-1.8-2.386-6.856-2.386-6.856z" fill="#006835" fill-rule="evenodd" stroke="#99c33b" stroke-width="2.636" transform="matrix(.88112 0 0 .88112 197.543 -17.815)" /><path d="M-204.267 93.502s5.63 2.169 8.351 1.411c2.676-.745 6.363-5.445 6.363-5.445v-2.017c-1.972-6.623-2.394-10.431-.397-16.133 1.996-5.703 6.843-12.654 12.924-15.328 15.288-6.72 30.344-4.415 45.933.202 0 0-4.456 5.28-6.164 8.269-2.964 5.185-4.847 10.94-6.96 16.537-2.556 8.793-3.396 12.751-11.93 16.739-8.216 3.27-17.784 3.083-25.452-.605-1.656-.797-3.58-4.235-3.58-4.235s-4.807 5.773-7.953 7.663c-2.904 1.72-6.415 2.335-8.749-.202-1.6-1.8-2.386-6.856-2.386-6.856z" fill="#00672e" fill-rule="evenodd" stroke="#113f25" stroke-width="1.279" transform="matrix(.88112 0 0 .88112 197.543 -17.815)" /><path d="M1.602 2.667V47.29c31.536 6.158 63.917 5.902 97.04 0V2.667z" opacity=".211" fill="#d5e8b9" fill-rule="evenodd" /><path d="M-222.499 21.915h110.114v110.098H-222.5z" fill="none" stroke="#121211" stroke-width="3.395" paint-order="fill markers stroke" transform="matrix(.88112 0 0 .88112 197.543 -17.815)" /></g></symbol><radialGradient xlink:href="#plant.sprite_a" id="plant.sprite_b" gradientUnits="userSpaceOnUse" gradientTransform="matrix(-.00774 2.1444 -1.9672 -.0073 -77.41 -547.629)" cx="291.419" cy="44.62" fx="291.419" fy="44.62" r="23.9"></radialGradient><linearGradient id="plant.sprite_a"><stop offset="0" stop-color="#76bc38" /><stop offset="1" stop-color="#439f21" /></linearGradient><symbol viewBox="0 0 100 100" id="points.sprite"><defs></defs><path fill="url(#points.sprite_c)" d="M3 3h94v94H3z" /><path fill="url(#points.sprite_d)" d="M8 8h84v84H8z" /><path d="M28.925 23.592c-2.057.975-3.59 2.084-4.376 3.174-.625.841-2.3 4.837-2.097 5.028.04.039.342-.134.645-.382.302-.268 1.31-1.11 2.218-1.893.928-.784 2.057-1.931 2.52-2.562.465-.65 1.392-1.74 2.098-2.447 1.916-1.931 1.634-2.18-1.008-.918zM69.317 23.171c0 .077.363.497.827.899.464.42 1.31 1.415 1.895 2.199.605.784 1.331 1.701 1.654 2.046.807.879 4.275 3.69 4.537 3.69.142 0 .142-.077.02-.249-.12-.115-.403-.841-.665-1.568-1.089-3.212-2.54-4.799-5.747-6.31-1.734-.821-2.52-1.032-2.52-.707z" /><path d="M23.238 26.345c-1.15.478-2.884 2.18-3.57 3.518l-.665 1.281-.06 3.862c-.04 2.142 0 3.882.1 3.862.081 0 .525-.458.989-.994.443-.554 1.694-1.663 2.762-2.485 2.965-2.256 4.497-4.168 4.86-6.061l.121-.67-1.048 1.033c-.585.555-1.755 1.472-2.582 2.046-.826.573-1.915 1.357-2.4 1.74-1.028.841-1.028 1.147-.02-2.6.686-2.62.928-3.136 1.836-4.13.665-.727.625-.784-.323-.402zM77.04 27.014c.424.44.848.995.969 1.224.322.707 1.754 6.06 1.593 6.06-.06 0-.343-.229-.625-.496-.263-.268-1.352-1.09-2.4-1.797-1.049-.708-2.3-1.683-2.783-2.16-.827-.88-.847-.88-.847-.364 0 1.319 1.875 3.785 4.215 5.564.625.478 1.875 1.587 2.783 2.447.907.88 1.693 1.587 1.754 1.587.202 0 .12-5.373-.08-6.769-.283-1.778-.787-2.772-2.037-4.034-1.09-1.09-1.936-1.663-2.804-1.912-.463-.134-.443-.076.263.65zM52.011 64.152c1.775-.169 4.024-.602 5.509-1.078 5.868-2.084 10.224-6.673 12.04-12.62.402-1.337.463-1.93.443-4.683 0-2.85-.06-3.308-.545-4.838-2.198-6.787-7.905-11.739-15.165-13.154-1.714-.344-6.07-.459-7.562-.23-3.549.555-7.38 2.295-10.244 4.609-2.5 2.026-4.92 5.659-5.888 8.833-.626 2.046-.787 6.214-.323 8.431.907 4.245 3.307 7.935 6.957 10.727 3.106 2.37 5.986 3.583 10.691 3.944 1.084.083 3.238.14 4.087.059zm-5.925.337l-2.581.019v1.529h2.4l.06 2.639.06 2.62h1.614l.06-2.62.06-2.62L50.12 66l2.36-.057.06-.727.06-.707-1.874.014-2.059-.014c-.669.012-1.168-.038-2.58-.02zm3.267-30.553v3.862l-1.513-.134c-1.411-.115-4.476-.765-4.698-.975-.182-.153 1.512-3.193 2.319-4.187 1.23-1.51 2.319-2.2 3.75-2.39.081-.02.142 1.72.142 3.824zm3.71-3.098c1.13.67 2.28 2.046 3.267 3.92l.908 1.74-.666.267c-.907.344-4.114.975-5.041.975h-.767v-3.69c0-2.045.04-3.747.121-3.804.182-.192 1.432.172 2.178.592zm-8.852.822c-.585.67-1.735 2.735-2.098 3.824-.14.402-.302.727-.363.727-.201 0-1.915-.956-2.641-1.472l-.646-.46.545-.439c1.432-1.128 4.638-2.753 5.465-2.791.181 0 .08.229-.262.611zm13.712.287c1.432.67 3.328 1.893 3.328 2.122-.02.134-1.29 1.071-2.239 1.645l-.524.325-.827-1.644c-.464-.9-1.109-2.027-1.472-2.505-.625-.86-.625-.88-.161-.746.262.077 1.109.44 1.895.803zm-19.52 3.996c.504.363 1.371.899 1.936 1.147.887.44.988.536.887.995-.766 3.996-.948 5.2-.948 6.08v1.032h-7.42l.1-.822c.181-1.568.867-3.824 1.553-5.162.645-1.243 2.601-3.958 2.843-3.958.06 0 .524.306 1.049.688zm25.409.593c1.774 2.218 3.287 5.87 3.287 7.935v.726H60.04v-1.109c0-1.338-.283-3.308-.746-5.181-.303-1.186-.303-1.434-.081-1.51.161-.058.968-.536 1.815-1.11.847-.554 1.573-1.013 1.653-1.013.061-.02.565.554 1.13 1.262zm-19.097 2.16c.887.21 2.278.44 3.125.517l1.513.114v5.87h-7.865V44.07c0-1.109.424-3.824.827-5.239.141-.535.282-.707.504-.63a45.74 45.74 0 001.896.496zm13.39.708c.403 1.644.726 3.709.726 4.875v.918h-8.087l.06-2.925.061-2.906.807-.058c1.23-.076 3.993-.573 4.86-.88.444-.152.887-.286 1.008-.286.141-.02.383.554.565 1.262zm-17.948 7.934c.06.46.162 1.415.222 2.16.06.727.303 2.104.524 3.06.262 1.224.323 1.74.162 1.797-.121.039-.968.536-1.856 1.09-.887.574-1.673 1.033-1.734 1.033-.202 0-1.674-1.817-2.46-3.06-.403-.63-.968-1.854-1.27-2.715-.525-1.567-.969-3.88-.767-4.072.06-.057 1.674-.096 3.59-.096h3.488zm9.156 2.2l-.061 3.02-1.573.134c-1.371.115-3.71.612-4.82 1.013-.262.096-.383-.038-.584-.707-.384-1.396-.787-4.015-.787-5.277v-1.186h7.885zm9.437-1.052c-.12 1.816-.706 4.99-.968 5.238-.08.058-.706-.057-1.411-.267-1.17-.344-3.408-.727-4.9-.86l-.606-.039-.06-2.772c-.02-1.51 0-2.868.04-3.002.08-.191 1.008-.249 4.074-.249h3.972zm8.349-1.262c0 2.562-2.198 7.246-4.195 8.948-.423.344-.443.344-1.19-.21a16.392 16.392 0 00-1.794-1.11l-1.029-.535.283-1.013c.363-1.377.867-4.57.867-5.64 0-.479.06-.937.14-.995.061-.076 1.655-.134 3.53-.134h3.388zM49.353 57.816v3.633h-.766c-1.029 0-2.219-.765-3.267-2.084-.928-1.167-2.3-3.748-2.138-4.015.06-.096.827-.345 1.674-.555 1.936-.497 2.34-.554 3.549-.593l.948-.019zm5.949-3.06c.867.211 1.674.46 1.754.536.182.172-.786 2.199-1.674 3.442-1.411 1.988-2.44 2.715-3.81 2.715h-.808v-7.323l1.473.115c.786.076 2.177.306 3.065.516zm-12.927 2.39c.303.67.868 1.722 1.25 2.314.384.593.666 1.128.626 1.167-.141.133-4.074-1.836-4.76-2.39l-.665-.536 1.372-.898c.746-.497 1.431-.899 1.492-.899.06 0 .363.554.685 1.243zm17.827-.458c.686.42 1.21.86 1.13.956-.303.497-3.711 2.409-4.88 2.753-.424.115-.424.057.241-.918.383-.573.948-1.625 1.25-2.313.283-.688.626-1.262.767-1.262.12 0 .786.344 1.492.784z" /><path d="M17.834 31.355c-1.331 1.472-2.28 3.938-2.501 6.577-.1 1.3-.02 1.816.847 5.066.524 2.008 1.028 3.786 1.13 3.958.221.382.584.459.584.134 0-.535 1.754-3.537 3.025-5.124 1.654-2.065 3.206-4.914 3.368-6.138l.1-.86-2.54 2.39c-1.836 1.702-2.723 2.696-3.126 3.48-.787 1.453-.827 1.243-.827-3.996 0-3.46.06-4.398.323-5.01.443-1.051.302-1.223-.383-.477zM82.122 31.24c.081.267.263.86.404 1.338.201.67.222 1.931.12 5.258l-.12 4.398-.464-.937c-.282-.612-1.31-1.778-3.025-3.442-1.412-1.376-2.642-2.543-2.743-2.581-.282-.115 0 1.166.545 2.428.544 1.281 1.754 3.136 3.55 5.468.644.823 1.471 2.18 1.834 3.021.585 1.358.686 1.472.928 1.147.242-.325 1.15-3.46 1.835-6.347.726-3.098-.282-7.361-2.279-9.464-.625-.67-.706-.708-.585-.287z" /><path d="M14.002 40.953c-.383.917-.464 4.588-.141 6.71.262 1.76 1.452 3.958 3.65 6.692l1.895 2.371.142-1.797c.1-1.262.383-2.562.968-4.378a46.64 46.64 0 001.694-7.706c.181-1.376-.283-1.147-1.13.574-.423.822-1.21 2.256-1.754 3.212-.605 1.013-1.069 2.065-1.13 2.581-.302 2.103-.322 2.103-.826.44a27.41 27.41 0 00-1.27-3.25c-.465-.976-.949-2.39-1.13-3.404-.202-.956-.403-1.988-.484-2.294l-.141-.574zM85.813 42.425c-.242 1.395-.585 2.524-1.09 3.594-.402.86-1.007 2.41-1.37 3.442l-.646 1.893-.242-1.492c-.222-1.262-.464-1.873-1.653-3.9-.767-1.32-1.533-2.715-1.694-3.098-1.331-3.02-.625 2.945.927 7.725.605 1.893.847 3.02.928 4.455l.141 1.912 1.634-2.008c3.024-3.728 3.79-5.258 4.113-8.088.343-3.078.162-5.315-.463-6.137-.222-.268-.303.02-.585 1.702z" /><path d="M21.443 51.086c-.08.803-.343 2.409-.564 3.575-.424 2.027-.424 2.142-.101 3.671.201.86.403 1.72.484 1.893.262.688-.323.038-.968-1.013-.363-.593-1.573-1.989-2.702-3.117-2.178-2.16-3.348-3.766-3.731-5.162-.383-1.358-.625-.516-.403 1.472.242 2.103.766 3.767 1.593 5.01 1.028 1.51 3.75 3.823 6.735 5.716 2.722 1.72 3.307 2.008 3.106 1.51-.726-1.816-1.19-3.766-1.452-6.29-.565-5.258-1.17-8.336-1.714-8.66-.081-.058-.222.573-.283 1.395zM78.573 50.302c-.464 1.166-.968 3.71-1.19 5.984-.342 3.824-.584 5.144-1.19 7.017-.322.975-.483 1.778-.383 1.778.121 0 1.352-.726 2.763-1.606 4.074-2.562 6.292-4.57 7.421-6.692.605-1.108 1.27-3.976 1.27-5.43 0-1.108-.282-1.338-.483-.382-.262 1.224-1.614 3.117-3.67 5.143-1.17 1.167-2.38 2.581-2.824 3.308-.766 1.243-1.25 1.663-.968.822.807-2.37.827-3.078.283-5.946-.222-1.147-.404-2.581-.404-3.193 0-1.243-.302-1.625-.625-.803z" /><path d="M24.145 57.166c0 .172.142.746.303 1.28.161.555.484 2.008.686 3.251.403 2.275.907 3.595 2.057 5.335.483.783.524.898.201.726-.222-.095-.464-.287-.524-.382-.141-.23-3.852-2.314-5.929-3.346-1.452-.727-3.327-2.256-4.537-3.729l-.545-.669.121.765c.303 1.797 2.42 4.723 4.679 6.5 2.54 1.99 3.791 2.448 10.809 3.863.746.153.705-.153-.162-1.052-.927-.975-1.915-2.982-3.025-6.175-.766-2.18-1.17-2.983-2.339-4.646-1.35-1.95-1.795-2.371-1.795-1.721zM74.822 58.81c-1.532 2.199-1.633 2.41-2.58 5.124-1.03 2.925-1.896 4.684-2.905 5.832-.948 1.07-1.028 1.319-.363 1.185.242-.038 1.634-.325 3.065-.593 4.034-.803 6.07-1.701 8.49-3.824 2.138-1.835 4.134-4.856 4.094-6.194v-.517l-.323.478c-.746 1.071-3.267 3.232-4.416 3.786-1.694.822-5.747 3.078-6.231 3.46-.867.727-.888.574-.121-.554 1.048-1.53 1.532-2.772 1.835-4.684.202-1.3.746-3.71 1.13-4.933.06-.191 0-.325-.162-.325-.141 0-.827.803-1.513 1.76z" /><path d="M29.328 64.24c-.06.057.182.65.524 1.3.363.631.908 1.721 1.23 2.39.666 1.434 2.037 2.83 3.47 3.537 1.25.612 1.088.612-3.671.02-5.384-.67-6.635-1.014-8.45-2.39-1.048-.784-1.129-.44-.181.783 1.31 1.702 4.174 3.576 6.231 4.092 2.178.535 5.97.287 9.982-.65.827-.21 1.856-.42 2.279-.497.988-.153.867-.516-.202-.708-1.815-.286-2.58-.803-7.542-5.105-2.722-2.351-3.488-2.944-3.67-2.772zM70.79 64.565c-.223.134-2.078 1.644-4.094 3.384-3.711 3.212-5.102 4.111-6.716 4.36-1.069.19-1.19.554-.201.707.423.057 1.452.287 2.319.478 3.77.937 7.784 1.185 9.941.67 1.997-.498 4.618-2.161 6.09-3.882 1.07-1.243 1.19-1.855.222-1.11-.988.747-2.42 1.416-3.73 1.74-1.29.326-8.853 1.3-9.196 1.186-.12-.038.282-.325.887-.65 1.614-.86 2.48-1.893 3.832-4.589.645-1.319 1.17-2.428 1.15-2.466-.041-.02-.263.057-.505.172zM53.689 66.439c-.565 1.051-1.07 1.97-1.17 2.027-.08.038-.625-.306-1.19-.784-.867-.708-1.21-.88-1.815-.88h-.766v4.589h1.613v-1.606l.887.822c1.23 1.147 1.594 1.051 2.562-.65l.766-1.32.06 1.32.06 1.338.868.058.847.057v-6.902h-1.734z" /><path d="M43.585 72.634c-1.976.344-2.682.573-5.02 1.625-1.11.516-2.582 1.032-3.288 1.147-1.694.325-4.638.134-6.19-.382-.646-.21-1.271-.364-1.372-.326-.303.096 1.875 1.855 2.924 2.352 1.472.708 3.085 1.033 5.102 1.033 2.44-.02 3.852-.497 6.655-2.295 2.4-1.53 4.053-2.275 5.081-2.294 1.452 0 1.331.23-.625 1.224-2.157 1.09-6.09 3.938-6.291 4.57-.101.305.02.515.544.917.383.306.746.554.847.554.08 0 1.028-.86 2.097-1.912 1.896-1.873 3.67-3.173 5.526-4.015l.907-.42 1.23.573c1.614.784 3.993 2.62 5.324 4.111 1.593 1.778 1.533 1.74 2.34 1.032.423-.382.665-.764.624-.994-.08-.535-4.113-3.556-6.03-4.493-.866-.44-1.592-.841-1.592-.898 0-.058.443-.058.988 0 1.19.133 2.601.783 4.658 2.122 3.065 2.007 4.215 2.409 6.957 2.409 1.936 0 3.59-.383 5.123-1.166 1.27-.65 3.004-2.008 2.803-2.2-.081-.057-.706.077-1.412.307-1.573.516-4.658.707-6.211.401-.605-.114-2.057-.65-3.227-1.166-3.73-1.663-7.199-2.237-9.941-1.625-1.452.325-1.533.325-3.166-.077-1.896-.459-3.267-.478-5.365-.114z" /><ellipse cx="51.781" cy="10.607" rx="120.828" ry="43.338" fill="#fff" fill-opacity=".176" /><path style="line-height:normal;font-variant-ligatures:normal;font-variant-position:normal;font-variant-caps:normal;font-variant-numeric:normal;font-variant-alternates:normal;font-variant-east-asian:normal;font-feature-settings:normal;font-variation-settings:normal;text-indent:0;text-align:start;text-decoration-line:none;text-decoration-style:solid;text-decoration-color:#000;text-transform:none;text-orientation:mixed;white-space:normal;shape-padding:0;shape-margin:0;inline-size:0;isolation:auto;mix-blend-mode:normal;solid-color:#000;solid-opacity:1" d="M0 0v100h100V0zm3 3h94v94H3z" color="#000" font-weight="400" font-family="sans-serif" overflow="visible" fill-rule="evenodd" /></symbol><linearGradient id="points.sprite_b"><stop offset="0" stop-color="#fbb869" /><stop offset="1" stop-color="#f95726" /></linearGradient><linearGradient id="points.sprite_a"><stop offset="0" stop-color="#fdb79c" /><stop offset="1" stop-color="#ab4400" /></linearGradient><linearGradient xlink:href="#points.sprite_a" id="points.sprite_c" x1="31.363" y1="12.506" x2="31.363" y2="65.435" gradientUnits="userSpaceOnUse" gradientTransform="matrix(1.43696 0 0 1.57955 -9.52 -11.017)"></linearGradient><radialGradient xlink:href="#points.sprite_b" id="points.sprite_d" cx="48.6" cy="45.437" fx="48.6" fy="45.437" r="33.88" gradientTransform="translate(-10.248 -6.328) scale(1.23967)" gradientUnits="userSpaceOnUse"></radialGradient><symbol viewBox="0 0 100 100" id="steel.sprite"><g stroke-width="1.135"><path d="M-220.478 23.936h106.056v106.057h-106.056z" fill="#aa794e" stroke="#92572b" stroke-width="2.182" paint-order="fill markers stroke" transform="matrix(.88112 0 0 .88112 197.543 -17.815)" /><path d="M-218.414 26h101.928v101.928h-101.928z" fill="#aa794e" stroke="#996841" stroke-width="2.182" paint-order="fill markers stroke" transform="matrix(.88112 0 0 .88112 197.543 -17.815)" /><path d="M-193.5 44.935l-8.76 5.234v12.057l8.446 4.443-1.72 42.359h10.009l-1.72-42.359 8.444-4.443V50.17l-8.757-5.234v12.69h-5.943zM-173.141 52.16v11.264h7.976a6.424 6.424 0 001.33-3.015h1.016c.12.783.114 1.241.625 3.015h5.943l-1.564 45.848h9.54l-1.25-45.848h3.753s-.415-2.16 0-3.015c.755-1.556 2.626-3.648 5.061-3.621 4.902.768 7.253 3.41 8.049 5.262.32-6.664-2.769-8.85-8.731-9.89h-20.253c-.472 1.163-.954 2.327-1.017 3.49h-1.173c-.164-1.163-.406-2.327-1.798-3.49z" fill="#513726" fill-rule="evenodd" stroke="#92572b" stroke-width="2.182" transform="matrix(.88112 0 0 .88112 197.543 -17.815)" /><g stroke-width=".468" fill="#513726" fill-rule="evenodd" stroke="#000"><path d="M159.78 29.503l-3.927 2.313v5.329l3.786 1.964-.77 18.721h4.487l-.771-18.721 3.786-1.964v-5.329l-3.927-2.313v5.609h-2.664zM168.908 32.696v4.978h3.576a2.82 2.82 0 00.596-1.332h.456c.054.346.05.548.28 1.332h2.665l-.701 20.264h4.277l-.561-20.264h1.683s-.186-.955 0-1.332c2.024-3.16 5.239-.74 5.878.725.143-2.945-1.242-3.911-3.915-4.371h-9.08c-.212.514-.428 1.028-.456 1.542h-.526c-.074-.514-.182-1.028-.806-1.542z" transform="matrix(1.96528 0 0 1.9936 -286.966 -37.038)" /></g><path d="M-222.5 21.914h110.1v110.1h-110.1z" fill="none" stroke="#000" stroke-width="3.392" paint-order="fill markers stroke" transform="matrix(.88112 0 0 .88112 197.543 -17.815)" /><path d="M2.695 2.896v43.67c30.699 6.027 62.22 5.777 94.464 0V2.897z" opacity=".1" fill="#fff" fill-rule="evenodd" /></g></symbol><symbol viewBox="0 0 100 100" id="titan.sprite"><defs></defs><g stroke-width="1.135"><path d="M-220.478 23.936h106.056v106.057h-106.056z" fill="#aa794e" stroke="#333" stroke-width="2.182" paint-order="fill markers stroke" transform="matrix(.88112 0 0 .88112 197.543 -17.815)" /><path d="M-218.414 26h101.928v101.928h-101.928z" fill="url(#titan.sprite_b)" stroke="#666" stroke-width="2.182" paint-order="fill markers stroke" transform="matrix(.88112 0 0 .88112 197.543 -17.815)" /><path d="M-166.72 38.51l-12.318 23.72-26.234 3.146 18.416 19.224-5.158 26.297 23.702-11.838 23.04 13.108-3.767-26.543 19.401-18.194-26.03-4.564zm-.377 14.39l7.11 15.673 16.753 2.935-12.487 11.713 2.426 17.079-14.83-8.435-1.48.737-13.772 6.879 3.322-16.921-11.852-12.37 16.882-2.025z" style="line-height:normal;font-variant-ligatures:normal;font-variant-position:normal;font-variant-caps:normal;font-variant-numeric:normal;font-variant-alternates:normal;font-feature-settings:normal;text-indent:0;text-align:start;text-decoration-line:none;text-decoration-style:solid;text-decoration-color:#000;text-transform:none;text-orientation:mixed;white-space:normal;shape-padding:0;isolation:auto;mix-blend-mode:normal;solid-color:#000;solid-opacity:1" color="#000" font-weight="400" font-family="sans-serif" overflow="visible" fill="#ffec02" stroke="#333" stroke-width="2.148" paint-order="fill markers stroke" transform="matrix(.88112 0 0 .88112 197.543 -17.815)" /><path style="line-height:normal;font-variant-ligatures:normal;font-variant-position:normal;font-variant-caps:normal;font-variant-numeric:normal;font-variant-alternates:normal;font-feature-settings:normal;text-indent:0;text-align:start;text-decoration-line:none;text-decoration-style:solid;text-decoration-color:#000;text-transform:none;text-orientation:mixed;white-space:normal;shape-padding:0;isolation:auto;mix-blend-mode:normal;solid-color:#000;solid-opacity:1" d="M-166.72 38.51l-12.318 23.72-26.234 3.147 18.416 19.223-5.158 26.297 23.702-11.838 23.04 13.108-3.767-26.543 19.401-18.194-26.03-4.564zm-.377 14.39l7.11 15.673 16.753 2.935-12.487 11.713 2.425 17.079-14.829-8.435-1.48.737-13.772 6.879 3.322-16.921-11.852-12.37 16.882-2.025z" color="#000" font-weight="400" font-family="sans-serif" overflow="visible" fill="#ffec02" stroke="#e8a42e" stroke-width=".565" paint-order="fill markers stroke" transform="matrix(.88112 0 0 .88112 197.543 -17.815)" /><path d="M2.442 2.046v41.376c30.91 5.71 62.65 5.472 95.116 0V2.046z" opacity=".28" fill="#fff" fill-rule="evenodd" /><path d="M-222.5 21.914h110.1v110.1h-110.1z" fill="none" stroke="#000" stroke-width="3.392" paint-order="fill markers stroke" transform="matrix(.88112 0 0 .88112 197.543 -17.815)" /></g></symbol><radialGradient xlink:href="#titan.sprite_a" id="titan.sprite_b" cx="171.675" cy="43.659" fx="171.675" fy="43.659" r="23.332" gradientTransform="matrix(2.23044 0 0 2.23109 -550.36 -20.442)" gradientUnits="userSpaceOnUse"></radialGradient><linearGradient id="titan.sprite_a"><stop offset="0" stop-color="#363634" /><stop offset="1" stop-color="#181818" /></linearGradient></defs><use id="energy.sprite-usage" xlink:href="#energy.sprite" class="sprite-symbol-usage" /><use id="gold.sprite-usage" xlink:href="#gold.sprite" class="sprite-symbol-usage" /><use id="heat.sprite-usage" xlink:href="#heat.sprite" class="sprite-symbol-usage" /><use id="plant.sprite-usage" xlink:href="#plant.sprite" class="sprite-symbol-usage" /><use id="points.sprite-usage" xlink:href="#points.sprite" class="sprite-symbol-usage" /><use id="steel.sprite-usage" xlink:href="#steel.sprite" class="sprite-symbol-usage" /><use id="titan.sprite-usage" xlink:href="#titan.sprite" class="sprite-symbol-usage" /></svg>