<?xml version="1.0" encoding="UTF-8" standalone="no"?>
<svg
   xmlns="http://www.w3.org/2000/svg"
   xmlns:xlink="http://www.w3.org/1999/xlink"
   width="100"
   height="100"
   viewBox="0 0 100 100"
   version="1.1"
   id="svg372">
  <defs
     id="defs366">
    <linearGradient
       id="linearGradient1107">
      <stop
         style="stop-color:#fee800;stop-opacity:1;"
         offset="0"
         id="stop1103" />
      <stop
         style="stop-color:#fecf00;stop-opacity:1;"
         offset="1"
         id="stop1105" />
    </linearGradient>
    <linearGradient
       id="linearGradient1077">
      <stop
         id="stop1071"
         offset="0"
         style="stop-color:#ffef00;stop-opacity:1;" />
      <stop
         style="stop-color:#f8ae01;stop-opacity:1"
         offset="1"
         id="stop1073" />
    </linearGradient>
    <linearGradient
       id="linearGradient1689">
      <stop
         style="stop-color:#363634;stop-opacity:1;"
         offset="0"
         id="stop1685" />
      <stop
         style="stop-color:#181818;stop-opacity:1;"
         offset="1"
         id="stop1687" />
    </linearGradient>
    <radialGradient
       xlink:href="#linearGradient1781"
       id="radialGradient1787"
       gradientUnits="userSpaceOnUse"
       gradientTransform="matrix(-0.00773886,2.1444044,-1.9671964,-0.0073032,-77.410592,-547.62882)"
       cx="291.41852"
       cy="44.619888"
       fx="291.41852"
       fy="44.619888"
       r="23.900143" />
    <linearGradient
       id="linearGradient1781">
      <stop
         style="stop-color:#76bc38;stop-opacity:1;"
         offset="0"
         id="stop1777" />
      <stop
         style="stop-color:#439f21;stop-opacity:1;"
         offset="1"
         id="stop1779" />
    </linearGradient>
  </defs>
  <g
     id="layer1">
    <g
       id="g1564"
       transform="matrix(0.88111642,0,0,0.88111568,197.54281,-17.814592)"
       style="stroke-width:1.13492">
      <path
         style="opacity:1;vector-effect:none;fill:#131111;fill-opacity:1;fill-rule:nonzero;stroke:#5eb134;stroke-width:2.26302;stroke-linecap:butt;stroke-linejoin:miter;stroke-miterlimit:4;stroke-dasharray:none;stroke-dashoffset:0;stroke-opacity:1;paint-order:fill markers stroke"
         d="m -220.47645,23.937278 h 106.06907 V 129.99167 h -106.06907 z"
         id="rect1596-0-4-0" />
      <path
         style="opacity:1;vector-effect:none;fill:url(#radialGradient1787);fill-opacity:1;fill-rule:nonzero;stroke:#99c33b;stroke-width:2.94193;stroke-linecap:butt;stroke-linejoin:miter;stroke-miterlimit:4;stroke-dasharray:none;stroke-dashoffset:0;stroke-opacity:1;paint-order:fill markers stroke"
         d="m -218.41219,26.001816 h 101.94056 V 127.92705 h -101.94056 z"
         id="rect1596-0-3-2-2" />
      <path
         style="fill:#006835;fill-opacity:1;fill-rule:evenodd;stroke:#99c33b;stroke-width:2.63642;stroke-linecap:butt;stroke-linejoin:miter;stroke-miterlimit:4;stroke-dasharray:none;stroke-opacity:1"
         d="m -204.26707,93.50162 c 0,0 5.62983,2.169262 8.35138,1.411721 2.67614,-0.744917 6.36295,-5.445178 6.36295,-5.445178 V 87.45146 c -1.97244,-6.623361 -2.39452,-10.431625 -0.39769,-16.133839 1.99683,-5.702209 6.84308,-12.653467 12.92473,-15.327131 15.28731,-6.720684 30.34341,-4.415717 45.93252,0.201717 0,0 -4.45535,5.27929 -6.16409,8.268587 -2.96395,5.185109 -4.84692,10.939701 -6.95949,16.53716 -2.55585,8.792792 -3.39646,12.751519 -11.93052,16.738825 -8.21611,3.269351 -17.78398,3.082891 -25.45178,-0.605012 -1.65643,-0.796684 -3.57916,-4.235138 -3.57916,-4.235138 0,0 -4.8073,5.773468 -7.95368,7.663591 -2.90409,1.72008 -6.41461,2.33483 -8.74905,-0.20173 -1.60053,-1.799886 -2.38612,-6.85687 -2.38612,-6.85687 z"
         id="path1750-1" />
      <path
         style="fill:#00672e;fill-opacity:1;fill-rule:evenodd;stroke:#113f25;stroke-width:1.2786;stroke-linecap:butt;stroke-linejoin:miter;stroke-miterlimit:4;stroke-dasharray:none;stroke-opacity:1"
         d="m -204.26707,93.50162 c 0,0 5.62983,2.169262 8.35138,1.411721 2.67614,-0.744917 6.36295,-5.445178 6.36295,-5.445178 V 87.45146 c -1.97244,-6.623361 -2.39452,-10.431625 -0.39769,-16.133839 1.99683,-5.702209 6.84308,-12.653467 12.92473,-15.327131 15.28731,-6.720684 30.34341,-4.415717 45.93252,0.201717 0,0 -4.45535,5.27929 -6.16409,8.268587 -2.96395,5.185109 -4.84692,10.939701 -6.95949,16.53716 -2.55585,8.792792 -3.39646,12.751519 -11.93052,16.738825 -8.21611,3.269351 -17.78398,3.082891 -25.45178,-0.605012 -1.65643,-0.796684 -3.57916,-4.235138 -3.57916,-4.235138 0,0 -4.8073,5.773468 -7.95368,7.663591 -2.90409,1.72008 -6.41461,2.33483 -8.74905,-0.20173 -1.60053,-1.799886 -2.38612,-6.85687 -2.38612,-6.85687 z"
         id="path1750" />
      <path
         style="opacity:0.2106;fill:#d5e8b9;fill-opacity:1;fill-rule:evenodd;stroke:none;stroke-width:2.26302;stroke-linecap:butt;stroke-linejoin:miter;stroke-miterlimit:4;stroke-dasharray:none;stroke-opacity:1"
         d="m -222.37837,23.24561 v 50.642539 c 35.79137,6.988181 72.54085,6.697729 110.13384,0 V 23.24561 Z"
         id="path1628-6-5" />
      <path
         style="opacity:1;vector-effect:none;fill:none;fill-opacity:1;fill-rule:nonzero;stroke:#121211;stroke-width:3.39453;stroke-linecap:butt;stroke-linejoin:miter;stroke-miterlimit:4;stroke-dasharray:none;stroke-dashoffset:0;stroke-opacity:1;paint-order:fill markers stroke"
         d="m -222.49878,21.915486 h 110.11371 V 132.01343 h -110.11371 z"
         id="rect1596-1-1" />
    </g>
  </g>
</svg>
