<?xml version="1.0" encoding="UTF-8" standalone="no"?>
<svg
   xmlns="http://www.w3.org/2000/svg"
   xmlns:xlink="http://www.w3.org/1999/xlink"
   width="100"
   height="100"
   viewBox="0 0 100 100"
   version="1.1"
   id="svg8">
  <defs
     id="defs2">
    <linearGradient
       id="linearGradient1319">
      <stop
         style="stop-color:#fbb869;stop-opacity:1"
         offset="0"
         id="stop1315" />
      <stop
         style="stop-color:#f95726;stop-opacity:1"
         offset="1"
         id="stop1317" />
    </linearGradient>
    <linearGradient
       id="bg">
      <stop
         style="stop-color:#fdb79c;stop-opacity:1"
         offset="0"
         id="stop458" />
      <stop
         style="stop-color:#ab4400;stop-opacity:1"
         offset="1"
         id="stop460" />
    </linearGradient>
    <linearGradient
       xlink:href="#bg"
       id="linearGradient464"
       x1="31.362898"
       y1="12.506094"
       x2="31.362898"
       y2="65.43515"
       gradientUnits="userSpaceOnUse"
       gradientTransform="matrix(1.436964,0,0,1.579548,-9.520571,-11.016897)" />
    <radialGradient
       xlink:href="#linearGradient1319"
       id="radialGradient1313"
       cx="48.600159"
       cy="45.437447"
       fx="48.600159"
       fy="45.437447"
       r="33.879925"
       gradientTransform="matrix(1.2396721,0,0,1.2396723,-10.248265,-6.3275385)"
       gradientUnits="userSpaceOnUse" />
  </defs>
  <rect
     style="fill:url(#linearGradient464);fill-opacity:1;stroke-width:1.50657"
     id="rect448"
     width="94"
     height="94"
     x="3"
     y="3" />
  <rect
     style="fill:url(#radialGradient1313);fill-opacity:1;stroke-width:1.23001"
     id="rect1289"
     width="84"
     height="84"
     x="8"
     y="8" />
  <g
     transform="matrix(0.0201659,0,0,-0.01911953,-0.0536158,87.26002)"
     fill="#000000"
     stroke="none"
     id="g214">
    <path
       d="m 1437,3330 c -102,-51 -178,-109 -217,-166 -31,-44 -114,-253 -104,-263 2,-2 17,7 32,20 15,14 65,58 110,99 46,41 102,101 125,134 23,34 69,91 104,128 95,101 81,114 -50,48 z"
       id="path180" />
    <path
       d="m 3440,3352 c 0,-4 18,-26 41,-47 23,-22 65,-74 94,-115 30,-41 66,-89 82,-107 40,-46 212,-193 225,-193 7,0 7,4 1,13 -6,6 -20,44 -33,82 -54,168 -126,251 -285,330 -86,43 -125,54 -125,37 z"
       id="path182" />
    <path
       d="m 1155,3186 c -57,-25 -143,-114 -177,-184 l -33,-67 -3,-202 c -2,-112 0,-203 5,-202 4,0 26,24 49,52 22,29 84,87 137,130 147,118 223,218 241,317 l 6,35 -52,-54 c -29,-29 -87,-77 -128,-107 -41,-30 -95,-71 -119,-91 -51,-44 -51,-60 -1,136 34,137 46,164 91,216 33,38 31,41 -16,21 z"
       id="path184" />
    <path
       d="m 3823,3151 c 21,-23 42,-52 48,-64 16,-37 87,-317 79,-317 -3,0 -17,12 -31,26 -13,14 -67,57 -119,94 -52,37 -114,88 -138,113 -41,46 -42,46 -42,19 0,-69 93,-198 209,-291 31,-25 93,-83 138,-128 45,-46 84,-83 87,-83 10,0 6,281 -4,354 -14,93 -39,145 -101,211 -54,57 -96,87 -139,100 -23,7 -22,4 13,-34 z"
       id="path186" />
    <path
       d="m 2581.839,1208.6246 c 87.9767,8.815 199.5184,31.4844 273.161,56.3754 291,109 507,349 597,660 20,70 23,101 22,245 0,149 -3,173 -27,253 -109,355 -392,614 -752,688 -85,18 -301,24 -375,12 -176,-29 -366,-120 -508,-241 -124,-106 -244,-296 -292,-462 -31,-107 -39,-325 -16,-441 45,-222 164,-415 345,-561 154,-124 296.8181,-187.4289 530.1678,-206.3038 53.7252,-4.3457 160.5474,-7.2923 202.6712,-3.0716 z M 2288,1191 l -128,-1 v -40 -40 h 60 59 l 3,-138 3,-137 h 40 40 l 3,137 3,137 117,3 117,3 3,38 3,37 -92.9461,-0.7626 -102.1021,0.7493 C 2382.7805,1189.3745 2358,1192 2288,1191 Z m 162,1598 v -202 l -75,7 c -70,6 -222,40 -233,51 -9,8 75,167 115,219 61,79 115,115 186,125 4,1 7,-90 7,-200 z m 184,162 c 56,-35 113,-107 162,-205 l 45,-91 -33,-14 c -45,-18 -204,-51 -250,-51 h -38 v 193 c 0,107 2,196 6,199 9,10 71,-9 108,-31 z m -439,-43 c -29,-35 -86,-143 -104,-200 -7,-21 -15,-38 -18,-38 -10,0 -95,50 -131,77 l -32,24 27,23 c 71,59 230,144 271,146 9,0 4,-12 -13,-32 z m 680,-15 c 71,-35 165,-99 165,-111 -1,-7 -64,-56 -111,-86 l -26,-17 -41,86 c -23,47 -55,106 -73,131 -31,45 -31,46 -8,39 13,-4 55,-23 94,-42 z m -968,-209 c 25,-19 68,-47 96,-60 44,-23 49,-28 44,-52 -38,-209 -47,-272 -47,-318 v -54 h -184 -184 l 5,43 c 9,82 43,200 77,270 32,65 129,207 141,207 3,0 26,-16 52,-36 z m 1260,-31 c 88,-116 163,-307 163,-415 v -38 h -175 -175 v 58 c 0,70 -14,173 -37,271 -15,62 -15,75 -4,79 8,3 48,28 90,58 42,29 78,53 82,53 3,1 28,-29 56,-66 z m -947,-113 c 44,-11 113,-23 155,-27 l 75,-6 v -153 -154 h -195 -195 v 59 c 0,58 21,200 41,274 7,28 14,37 25,33 9,-3 51,-15 94,-26 z m 664,-37 c 20,-86 36,-194 36,-255 v -48 h -200 -201 l 3,153 3,152 40,3 c 61,4 198,30 241,46 22,8 44,15 50,15 7,1 19,-29 28,-66 z m -890,-415 c 3,-24 8,-74 11,-113 3,-38 15,-110 26,-160 13,-64 16,-91 8,-94 -6,-2 -48,-28 -92,-57 -44,-30 -83,-54 -86,-54 -10,0 -83,95 -122,160 -20,33 -48,97 -63,142 -26,82 -48,203 -38,213 3,3 83,5 178,5 h 173 z m 454,-115 -3,-158 -78,-7 c -68,-6 -184,-32 -239,-53 -13,-5 -19,2 -29,37 -19,73 -39,210 -39,276 v 62 h 195 196 z m 468,55 c -6,-95 -35,-261 -48,-274 -4,-3 -35,3 -70,14 -58,18 -169,38 -243,45 l -30,2 -3,145 c -1,79 0,150 2,157 4,10 50,13 202,13 h 197 z m 414,66 c 0,-134 -109,-379 -208,-468 -21,-18 -22,-18 -59,11 -21,16 -61,43 -89,58 l -51,28 14,53 c 18,72 43,239 43,295 0,25 3,49 7,52 3,4 82,7 175,7 h 168 z m -880,-554 v -190 h -38 c -51,0 -110,40 -162,109 -46,61 -114,196 -106,210 3,5 41,18 83,29 96,26 116,29 176,31 l 47,1 z m 295,160 c 43,-11 83,-24 87,-28 9,-9 -39,-115 -83,-180 -70,-104 -121,-142 -189,-142 h -40 v 191 192 l 73,-6 c 39,-4 108,-16 152,-27 z m -641,-125 c 15,-35 43,-90 62,-121 19,-31 33,-59 31,-61 -7,-7 -202,96 -236,125 l -33,28 68,47 c 37,26 71,47 74,47 3,0 18,-29 34,-65 z m 884,24 c 34,-22 60,-45 56,-50 -15,-26 -184,-126 -242,-144 -21,-6 -21,-3 12,48 19,30 47,85 62,121 14,36 31,66 38,66 6,0 39,-18 74,-41 z"
       id="path188" />
    <path
       d="m 887,2924 c -66,-77 -113,-206 -124,-344 -5,-68 -1,-95 42,-265 26,-105 51,-198 56,-207 11,-20 29,-24 29,-7 0,28 87,185 150,268 82,108 159,257 167,321 l 5,45 -126,-125 c -91,-89 -135,-141 -155,-182 -39,-76 -41,-65 -41,209 0,181 3,230 16,262 22,55 15,64 -19,25 z"
       id="path190" />
    <path
       d="m 4075,2930 c 4,-14 13,-45 20,-70 10,-35 11,-101 6,-275 l -6,-230 -23,49 c -14,32 -65,93 -150,180 -70,72 -131,133 -136,135 -14,6 0,-61 27,-127 27,-67 87,-164 176,-286 32,-43 73,-114 91,-158 29,-71 34,-77 46,-60 12,17 57,181 91,332 36,162 -14,385 -113,495 -31,35 -35,37 -29,15 z"
       id="path192" />
    <path
       d="m 697,2422 c -19,-48 -23,-240 -7,-351 13,-92 72,-207 181,-350 l 94,-124 7,94 c 5,66 19,134 48,229 37,123 69,277 84,403 9,72 -14,60 -56,-30 -21,-43 -60,-118 -87,-168 -30,-53 -53,-108 -56,-135 -15,-110 -16,-110 -41,-23 -13,45 -41,122 -63,170 -23,51 -47,125 -56,178 -10,50 -20,104 -24,120 l -7,30 z"
       id="path194" />
    <path
       d="m 4258,2345 c -12,-73 -29,-132 -54,-188 -20,-45 -50,-126 -68,-180 l -32,-99 -12,78 c -11,66 -23,98 -82,204 -38,69 -76,142 -84,162 -66,158 -31,-154 46,-404 30,-99 42,-158 46,-233 l 7,-100 81,105 c 150,195 188,275 204,423 17,161 8,278 -23,321 -11,14 -15,-1 -29,-89 z"
       id="path196" />
    <path
       d="m 1066,1892 c -4,-42 -17,-126 -28,-187 -21,-106 -21,-112 -5,-192 10,-45 20,-90 24,-99 13,-36 -16,-2 -48,53 -18,31 -78,104 -134,163 -108,113 -166,197 -185,270 -19,71 -31,27 -20,-77 12,-110 38,-197 79,-262 51,-79 186,-200 334,-299 135,-90 164,-105 154,-79 -36,95 -59,197 -72,329 -28,275 -58,436 -85,453 -4,3 -11,-30 -14,-73 z"
       id="path198" />
    <path
       d="m 3899,1933 c -23,-61 -48,-194 -59,-313 -17,-200 -29,-269 -59,-367 -16,-51 -24,-93 -19,-93 6,0 67,38 137,84 202,134 312,239 368,350 30,58 63,208 63,284 0,58 -14,70 -24,20 -13,-64 -80,-163 -182,-269 -58,-61 -118,-135 -140,-173 -38,-65 -62,-87 -48,-43 40,124 41,161 14,311 -11,60 -20,135 -20,167 0,65 -15,85 -31,42 z"
       id="path200" />
    <path
       d="m 1200,1574 c 0,-9 7,-39 15,-67 8,-29 24,-105 34,-170 20,-119 45,-188 102,-279 24,-41 26,-47 10,-38 -11,5 -23,15 -26,20 -7,12 -191,121 -294,175 -72,38 -165,118 -225,195 l -27,35 6,-40 c 15,-94 120,-247 232,-340 126,-104 188,-128 536,-202 37,-8 35,8 -8,55 -46,51 -95,156 -150,323 -38,114 -58,156 -116,243 -67,102 -89,124 -89,90 z"
       id="path202" />
    <path
       d="m 3713,1488 c -76,-115 -81,-126 -128,-268 -51,-153 -94,-245 -144,-305 -47,-56 -51,-69 -18,-62 12,2 81,17 152,31 200,42 301,89 421,200 106,96 205,254 203,324 v 27 l -16,-25 c -37,-56 -162,-169 -219,-198 -84,-43 -285,-161 -309,-181 -43,-38 -44,-30 -6,29 52,80 76,145 91,245 10,68 37,194 56,258 3,10 0,17 -8,17 -7,0 -41,-42 -75,-92 z"
       id="path204" />
    <path
       d="m 1457,1204 c -3,-3 9,-34 26,-68 18,-33 45,-90 61,-125 33,-75 101,-148 172,-185 62,-32 54,-32 -182,-1 -267,35 -329,53 -419,125 -52,41 -56,23 -9,-41 65,-89 207,-187 309,-214 108,-28 296,-15 495,34 41,11 92,22 113,26 49,8 43,27 -10,37 -90,15 -128,42 -374,267 -135,123 -173,154 -182,145 z"
       id="path206" />
    <path
       d="m 3513,1187 c -11,-7 -103,-86 -203,-177 -184,-168 -253,-215 -333,-228 -53,-10 -59,-29 -10,-37 21,-3 72,-15 115,-25 187,-49 386,-62 493,-35 99,26 229,113 302,203 53,65 59,97 11,58 -49,-39 -120,-74 -185,-91 -64,-17 -439,-68 -456,-62 -6,2 14,17 44,34 80,45 123,99 190,240 32,69 58,127 57,129 -2,1 -13,-3 -25,-9 z"
       id="path208" />
    <path
       d="m 2665,1089 c -28,-55 -53,-103 -58,-106 -4,-2 -31,16 -59,41 -43,37 -60,46 -90,46 h -38 V 950 830 h 40 40 v 42 42 l 44,-43 c 61,-60 79,-55 127,34 l 38,69 3,-69 3,-70 43,-3 42,-3 v 180 181 h -43 -43 z"
       id="path210" />
    <path
       d="m 2164,765 c -98,-18 -133,-30 -249,-85 -55,-27 -128,-54 -163,-60 -84,-17 -230,-7 -307,20 -32,11 -63,19 -68,17 -15,-5 93,-97 145,-123 73,-37 153,-54 253,-54 121,1 191,26 330,120 119,80 201,119 252,120 72,0 66,-12 -31,-64 -107,-57 -302,-206 -312,-239 -5,-16 1,-27 27,-48 19,-16 37,-29 42,-29 4,0 51,45 104,100 94,98 182,166 274,210 l 45,22 61,-30 c 80,-41 198,-137 264,-215 79,-93 76,-91 116,-54 21,20 33,40 31,52 -4,28 -204,186 -299,235 -43,23 -79,44 -79,47 0,3 22,3 49,0 59,-7 129,-41 231,-111 152,-105 209,-126 345,-126 96,0 178,20 254,61 63,34 149,105 139,115 -4,3 -35,-4 -70,-16 -78,-27 -231,-37 -308,-21 -30,6 -102,34 -160,61 -185,87 -357,117 -493,85 -72,-17 -76,-17 -157,4 -94,24 -162,25 -266,6 z"
       id="path212" />
  </g>
  <ellipse
     style="fill:#ffffff;fill-opacity:0.17587203;stroke-width:0.888659"
     id="path1339"
     cx="51.781368"
     cy="10.607286"
     rx="120.82808"
     ry="43.338348" />
  <path
     style="color:#000000;font-style:normal;font-variant:normal;font-weight:normal;font-stretch:normal;font-size:medium;line-height:normal;font-family:sans-serif;font-variant-ligatures:normal;font-variant-position:normal;font-variant-caps:normal;font-variant-numeric:normal;font-variant-alternates:normal;font-variant-east-asian:normal;font-feature-settings:normal;font-variation-settings:normal;text-indent:0;text-align:start;text-decoration:none;text-decoration-line:none;text-decoration-style:solid;text-decoration-color:#000000;letter-spacing:normal;word-spacing:normal;text-transform:none;writing-mode:lr-tb;direction:ltr;text-orientation:mixed;dominant-baseline:auto;baseline-shift:baseline;text-anchor:start;white-space:normal;shape-padding:0;shape-margin:0;inline-size:0;clip-rule:nonzero;display:inline;overflow:visible;visibility:visible;isolation:auto;mix-blend-mode:normal;color-interpolation:sRGB;color-interpolation-filters:linearRGB;solid-color:#000000;solid-opacity:1;vector-effect:none;fill:#000000;fill-opacity:1;fill-rule:evenodd;stroke:none;stroke-width:0;stroke-linecap:butt;stroke-linejoin:miter;stroke-miterlimit:4;stroke-dasharray:none;stroke-dashoffset:0;stroke-opacity:1;color-rendering:auto;image-rendering:auto;shape-rendering:auto;text-rendering:auto;enable-background:accumulate;stop-color:#000000;stop-opacity:1"
     d="M 0,0 V 0.4950495 100 H 100 V 0 Z M 3,3 H 97 V 97 H 3 Z"
     id="path1360" />
</svg>
